<?xml version="1.0" standalone="no"?>
<!DOCTYPE svg PUBLIC "-//W3C//DTD SVG 20010904//EN"
 "http://www.w3.org/TR/2001/REC-SVG-20010904/DTD/svg10.dtd">
<svg version="1.0" xmlns="http://www.w3.org/2000/svg"
 width="260.000000pt" height="260.000000pt" viewBox="0 0 260.000000 260.000000"
 preserveAspectRatio="xMidYMid meet">
<metadata>
Created by potrace 1.11, written by Peter Selinger 2001-2013
</metadata>
<g transform="translate(0.000000,260.000000) scale(0.100000,-0.100000)"
fill="#000000" stroke="none">
<path d="M579 2085 c-108 -26 -215 -84 -287 -155 -48 -48 -50 -73 -13 -145 37
-73 37 -87 10 -191 -136 -526 -159 -642 -159 -808 0 -121 11 -158 59 -199 59
-49 139 -58 282 -31 179 34 309 89 431 184 80 63 180 182 214 255 59 125 69
300 25 400 -27 60 -54 91 -104 116 l-37 20 24 42 c97 168 63 386 -74 472 -83
53 -246 70 -371 40z m198 -269 c24 -21 28 -31 28 -78 -1 -71 -36 -132 -116
-198 -55 -46 -137 -96 -144 -88 -1 2 5 37 15 78 10 41 28 119 40 173 22 94 24
99 59 117 49 26 84 25 118 -4z m82 -513 c46 -38 32 -157 -28 -241 -45 -61
-144 -135 -256 -192 -90 -45 -166 -65 -164 -42 0 4 15 77 32 162 l33 155 119
61 c66 33 142 72 170 87 59 32 66 33 94 10z"/>
<path d="M1719 2080 c-141 -17 -289 -71 -336 -122 -33 -35 -55 -95 -48 -130 4
-16 21 -52 37 -79 37 -59 36 -80 -17 -299 -33 -135 -39 -151 -75 -189 -51 -54
-58 -89 -30 -146 19 -39 20 -51 11 -97 -28 -147 -19 -260 25 -335 32 -55 87
-93 135 -93 58 0 68 20 80 156 15 171 43 303 67 305 4 0 26 2 49 5 42 5 42 5
48 -33 60 -345 212 -540 475 -608 86 -22 239 -18 293 9 33 16 59 57 45 71 -2
3 -48 16 -101 29 -121 31 -183 64 -248 133 -79 84 -125 199 -150 377 l-11 81
89 90 c141 144 213 306 213 485 0 196 -96 328 -272 374 -75 19 -197 26 -279
16z m215 -294 c44 -18 60 -60 53 -133 -8 -77 -47 -151 -112 -212 -57 -54 -152
-105 -218 -117 -38 -6 -38 -6 -31 22 14 61 114 408 119 412 9 10 111 41 133
42 12 0 37 -6 56 -14z"/>
</g>
</svg>
